<svg width="381" height="115" viewBox="0 0 381 115" fill="none" xmlns="http://www.w3.org/2000/svg">
<g style="mix-blend-mode:multiply">
<path d="M5.90296 84.518C148.886 58.1775 230.315 48.8666 380.17 52.1318" stroke="#00FF59" stroke-width="60"/>
</g>
<path d="M346.651 73.1548C347.178 68.0696 347.851 62.5654 348.642 56.917C343.013 62.1986 332.676 69.1071 323.466 70.8912C324.329 66.3302 326.218 57.7435 327.37 52.3445C326.269 52.5984 325.333 52.7505 324.655 52.8858L326.065 46.833C329.128 46.36 336.345 44.979 338.975 44.4433C339.475 42.2266 340.221 39.1747 340.709 36.7768C338.113 37.1737 331.39 38.204 326.8 39.0041L328.12 33.5487L349.829 30.3118C348.969 34.9181 346.631 44.5352 345.809 48.411C344.281 48.6928 340.045 49.6517 335.721 50.5709C334.953 53.9428 333.962 58.5122 333.569 60.4034C338.283 58.8672 343.546 55.8845 349.406 51.4979C350.582 43.8223 351.928 36.1356 353.328 29.2644L361.195 27.9774C359.885 34.2512 358.813 40.8735 357.949 47.3912C359.86 47.0389 366.98 46.3801 368.931 45.9798L367.983 51.8659C366.16 52.2579 359.043 52.962 357.178 53.3568C356.405 59.9595 355.795 66.4152 355.275 72.2734L346.651 73.1548Z" fill="black"/>
<path d="M306.831 75.7533C308.215 62.0578 310.739 45.4212 313.508 31.8629L321.375 30.5759C319.932 37.4499 318.816 44.7121 317.905 51.8244C319.773 51.4749 321.681 51.0774 323.59 50.6798L322.641 56.566L317.174 57.7419C316.448 63.75 315.925 69.5629 315.455 74.8719L306.831 75.7533ZM282.874 47.8313L284.226 41.5548C285.969 41.259 289.204 40.7749 292.864 40.2175C293.432 37.7233 294.013 34.7733 294.442 32.7886L302.535 31.6689C302.06 33.611 301.265 36.5751 300.606 38.9842C304.819 38.3452 308.69 37.7286 310.607 37.4669L309.175 43.8397C305.347 44.4536 288.915 46.891 282.874 47.8313ZM283.874 59.8696C285.042 54.0601 289.358 48.4092 296.39 47.4952C303.896 46.5958 308.323 50.5387 307.323 57.6112C306.255 64.9613 300.406 70.1663 292.848 70.9325C285.93 71.6115 282.607 66.1406 283.874 59.8696ZM291.141 59.2589C290.293 62.7269 291.661 64.5942 293.712 64.4148C296.488 64.1426 298.851 61.4858 299.607 57.9328C300.256 54.7053 298.336 53.602 296.12 53.8832C293.86 54.1672 291.89 56.2523 291.141 59.2589Z" fill="black"/>
<path d="M267.51 66.5803C268.08 63.449 268.909 59.0267 269.808 54.3722L265.809 54.9972L267.051 49.0009L270.928 48.4749C271.122 47.5066 271.277 46.5865 271.478 45.7088L267.903 46.2606L268.889 40.281L272.637 39.7634C273.02 37.7363 273.422 35.981 273.715 34.5513L282.227 33.2677C280.406 41.577 276.461 57.5327 275.031 65.9074L267.51 66.5803ZM243.317 64.0185C244.801 55.1397 246.724 43.7752 248.209 36.8984L256.049 35.8408C255.882 36.5797 255.673 37.3214 255.509 38.1056C259.12 37.4604 263.887 36.7398 269.256 36.0254C267.814 42.2622 265.42 52.338 263.979 58.5748C260.905 59.549 256.22 60.8558 252.181 61.5289L251.649 57.3319C251.336 59.1269 251.058 60.7832 250.85 62.2073L243.317 64.0185ZM246.966 65.919L255.054 64.0715C256.844 74.3747 262.402 75.2405 267.367 74.9165C271.518 74.6456 277.135 73.7785 280.598 72.1874L276.892 77.298C274.435 78.505 270.649 79.116 266.327 79.3981C258.11 79.9344 249.342 77.9585 246.966 65.919ZM251.866 56.0437C253.78 55.7368 255.813 55.2856 257.761 54.8399C258.801 50.3583 260.077 44.2233 260.421 42.2443C258.932 42.4779 256.593 42.8581 254.379 43.1846C253.456 47.4766 252.593 52.0376 251.866 56.0437Z" fill="black"/>
<path d="M227.212 80.9497C227.608 77.1472 228.073 73.0672 228.62 68.9363C221.51 71.9484 212.63 74.8485 202.045 77.951L203.326 70.587C204.849 70.2146 206.375 69.8875 207.855 69.5179C208.324 63.5265 209.331 51.9488 209.745 48.4181L216.988 47.4448C216.54 51.1143 215.566 61.8709 215.051 67.8197L217.883 67.0889C218.824 60.4296 219.891 51.7601 220.485 47.0346L228.112 46.6733L225.147 65.1132C226.538 64.7039 227.93 64.2946 229.316 63.7946C230.61 54.6552 232.193 45.315 233.889 37.0594L241.756 35.7724C240.446 42.0462 239.374 48.6684 238.51 55.1861C240.421 54.8339 242.33 54.4364 244.28 54.036L243.332 59.9222C241.51 60.3142 239.604 60.757 237.739 61.1518C236.967 67.7545 236.356 74.2101 235.836 80.0684L227.212 80.9497ZM204.736 48.0624L205.847 42.0292C212.148 41.1174 225.493 39.4729 232.192 38.7172L231.009 44.3002C224.362 45.189 210.992 47.1081 204.736 48.0624Z" fill="black"/>
<path d="M169.578 57.0001C159.756 57.9597 155.557 54.8665 156.999 49.3121C158.1 45.0996 164.689 41.3479 174.169 40.4107C184.505 39.4176 189.573 41.999 188.765 46.7384C187.87 52.1206 180.043 55.9986 169.578 57.0001ZM151.696 66.1755L153.429 60.4656C157.009 60.0045 185.803 56.6692 190.154 56.1578L188.739 61.4828C185.199 61.8959 156.554 65.54 151.696 66.1755ZM153.896 80.1376L155.009 74.7868C160.377 74.0724 173.717 72.3372 177.93 71.6982L178.197 69.8607C173.935 70.4119 161.791 72.0235 155.529 72.8872L156.593 67.4485C162.814 66.6329 179.951 64.468 186.986 63.5994C186.328 66.6909 185.287 73.1292 184.808 75.6631L164.625 78.5729C164.735 80.2493 166.191 80.8368 170.468 80.5121C175.601 80.1317 183.821 78.3211 191.695 73.8485L189.869 78.791C183.854 82.7782 176.722 84.7907 170.87 85.3546C159.253 86.4768 156.192 84.356 156.321 79.7518C155.385 79.9039 154.578 80.0476 153.896 80.1376ZM164.005 49.3099C163.677 50.8784 165.748 51.6533 170.826 51.0944C175.394 50.6143 180.607 49.5004 180.988 47.428C181.242 46.0464 178.678 45.6222 173.303 46.246C168.864 46.7177 164.372 47.6934 164.005 49.3099Z" fill="black"/>
<path d="M139.849 63.718C140.068 62.4751 140.282 61.1416 140.496 59.808L136.283 60.447L137.525 54.4507L141.484 53.8738C141.608 53.1377 141.772 52.3534 141.893 51.572L137.936 52.1942L138.921 46.2147L142.966 45.6321C143.118 44.6667 143.313 43.6984 143.468 42.7783L151.98 41.4947C150.409 48.3771 148.604 56.2758 147.382 62.5893L139.849 63.718ZM113.314 55.5757C114.37 49.364 120.146 44.3458 127.113 43.7546C133.869 43.2227 138.465 46.4719 137.62 52.6244C136.685 59.3742 130.871 63.8033 123.417 64.8359C116.131 65.8119 112.227 61.9715 113.314 55.5757ZM115.109 81.7589L116.206 76.1815C121.321 75.5291 133.625 73.7251 138.046 72.9816L138.551 70.173C134.463 70.7583 123.899 72.2212 116.668 73.3757L117.731 67.9371C124.204 67.0141 140.595 64.6248 147.411 63.6795C146.77 67.0429 145.588 73.9454 145.123 76.7059L125.82 79.9223C125.946 82.5077 127.335 83.3726 131.312 83.0675C136.359 82.6926 144.408 80.8933 152.111 76.4318L150.285 81.3743C144.398 85.3531 137.437 87.3545 131.714 87.91C120.739 88.9903 117.571 86.5579 117.531 81.3278C116.598 81.5252 115.745 81.6263 115.109 81.7589ZM120.395 54.7496C119.854 57.6516 121.7 58.9416 124.256 58.5928C127.149 58.131 129.265 56.3093 129.692 53.6423C130.145 50.7006 128.699 49.6119 125.794 49.8925C122.805 50.1786 120.849 52.4903 120.395 54.7496Z" fill="black"/>
<path d="M99.6225 68.9824C100.093 66.3126 100.829 62.4424 101.556 58.4362L94.5388 59.5767L95.642 54.09L102.577 53.0004C103.155 50.005 103.708 47.2843 104.097 45.3477L112.609 44.0642C111.202 50.1623 108.23 61.9138 107.131 68.1283L99.6225 68.9824ZM71.1166 72.1169C77.3421 65.4313 83.325 53.7108 86.5031 47.0875L93.9631 46.1456C92.7489 49.2735 90.912 53.3976 88.901 57.4875L92.8648 56.3188C93.5737 60.5952 95.3526 64.8019 97.6464 68.3378L89.2685 69.7037C88.0566 67.5986 87.1398 64.7463 86.6082 61.8689C84.6133 65.5482 82.5461 68.7773 80.7444 70.806L71.1166 72.1169ZM75.8945 78.8124L77.405 72.9805C83.6268 72.165 99.3113 70.1403 107.034 69.2723C105.407 77.9328 104.121 84.5691 103.218 89.1782L95.2759 89.9696C96.3099 85.3974 97.4382 79.636 98.1889 75.9923C93.4532 76.5289 83.1435 77.9298 75.8945 78.8124Z" fill="black"/>
<path d="M36.3906 71.7442C39.9708 71.283 68.7645 67.9478 73.1151 67.4363L71.73 73.2145L67.3824 73.7713C66.6271 76.6872 65.6433 80.7101 65.307 82.1426L56.6545 83.2533C57.1841 81.4897 58.2566 77.5065 58.9838 74.8199C58.302 74.9099 57.6202 74.9999 56.9354 75.0446C56.1831 78.0058 55.1993 82.0288 54.863 83.4613L47.8708 84.3271C50.4184 87.801 54.3057 88.0934 57.9007 87.8587C62.052 87.5878 67.6688 86.7207 71.1323 85.1296L67.4553 90.6933C64.9982 91.9002 61.2129 92.5113 56.8904 92.7934C48.6732 93.3297 39.9201 91.5803 37.618 80.6735L45.7066 78.8261C45.9695 80.2195 46.3489 81.4233 46.8021 82.4403C47.3199 80.4954 48.0161 77.9928 48.5398 76.1386C42.2294 76.9144 36.6038 77.6456 34.6868 77.9072L36.3906 71.7442ZM39.8424 58.7783C41.1891 53.7307 47.4135 49.0018 56.8938 48.0645C67.2301 47.0714 72.6024 50.361 71.6084 56.2046C70.5215 62.6004 63.0044 67.2772 52.5397 68.2786C42.717 69.2382 38.0825 65.4 39.8424 58.7783ZM46.8199 59.0055C46.3008 61.5875 48.7094 62.9319 53.7875 62.3729C58.355 61.8928 63.2707 60.1614 63.8311 56.8942C64.2647 54.3178 61.403 53.276 56.0282 53.8998C51.5891 54.3715 47.4866 56.0498 46.8199 59.0055Z" fill="black"/>
<path d="M191.067 24.4629C192.164 18.5438 194.433 6.39994 195.623 0.942529L201.874 -6.13541e-05C200.537 6.10184 197.64 17.8189 196.59 23.9689L191.067 24.4629ZM173.622 12.503C174.567 7.16184 178.792 2.74271 184.128 2.2942C189.027 1.90768 192.569 4.91771 191.785 10.3152C191.029 16.1452 186.738 20.034 180.981 20.8107C175.757 21.5193 172.662 18.1124 173.622 12.503ZM175.98 23.9773L181.92 22.6207C183.234 30.1868 187.316 30.8226 190.962 30.5847C194.01 30.3857 198.135 29.749 200.678 28.5805L197.956 32.3335C196.152 33.2198 193.372 33.6686 190.198 33.8757C184.164 34.2695 177.725 32.8185 175.98 23.9773ZM178.821 11.8964C178.238 15.042 179.812 16.4429 181.597 16.2261C183.975 15.9039 185.515 13.8654 185.963 11.0627C186.453 7.92321 185.23 6.5996 183.16 6.80152C180.713 7.02805 179.298 9.52624 178.821 11.8964Z" fill="black"/>
<path d="M145.329 21.1994C146.89 20.9305 155.11 19.6923 162.14 18.5986L165.202 7.97345C159.856 8.75674 152.108 9.96415 149.36 10.4108L150.51 5.79138C155.51 5.03066 166.707 3.46454 172.962 2.58849L168.079 17.7098C170.048 17.4142 171.548 17.1827 172.235 17.071L171.534 21.327C170.472 21.4965 166.352 22.1998 161.607 23.0107C160.475 27.4284 159.126 32.8628 158.598 34.9356L151.947 36.0379C152.64 33.5869 154.088 28.2129 155.239 24.0946C150.401 24.9116 146 25.6666 144.565 25.9273L145.329 21.1994Z" fill="black"/>
<path d="M134.738 23.7951L136.337 15.404L132.089 16.0822L132.899 12.053L137.084 11.3789C137.577 8.77382 138.049 6.33716 138.414 4.67603L144.665 3.73344C143.44 8.65849 141.188 18.1615 140.124 23.1428L134.738 23.7951ZM114.712 25.9709C118.24 21.9982 122.968 16.5772 125.975 11.87C123.009 12.3643 119.475 12.8623 117.321 13.2367L118.395 8.88963C119.614 8.70982 121.147 8.50949 122.775 8.30302C123.043 7.08264 123.274 5.79776 123.444 5.01813L129.388 4.19587C129.163 5.11269 128.862 6.30185 128.532 7.52634C130.909 7.20409 133.161 6.89004 134.852 6.67946C133.617 9.03226 131.52 12.2098 129.291 15.2957L131.553 14.6469C131.949 17.3277 132.848 19.9756 134.035 22.2037L127.882 23.2067C127.454 21.9649 127.094 20.3177 126.858 18.629C124.883 21.2639 122.984 23.5932 121.688 25.0144L114.712 25.9709ZM117.845 31.4135C119.441 27.333 124.863 24.3393 131.158 24.0622C137.232 23.7994 140.736 26.7117 139.732 30.1855C138.268 35.3266 132.687 37.8294 125.823 38.0769C119.181 38.3433 116.364 35.3194 117.845 31.4135ZM123.303 31.3913C122.643 32.8713 124.088 33.7459 126.978 33.524C130.19 33.4146 133.054 32.3255 133.72 30.4442C134.253 28.9392 132.948 28.2892 129.491 28.5148C126.508 28.743 123.933 29.9134 123.303 31.3913Z" fill="black"/>
<path d="M104.909 38.7068C105.192 35.7813 105.558 32.6833 105.982 29.5146C100.707 31.8638 93.9434 34.143 85.7994 36.5457L86.7405 31.1379C87.8589 30.8645 88.9794 30.6243 90.0664 30.3528C90.4105 25.9531 91.1497 17.451 91.4539 14.8582L96.7728 14.1435C96.4415 16.8049 95.7261 24.704 95.3798 29.0704L97.4595 28.5338C98.1189 23.6456 98.9027 17.2791 99.3412 13.8422L104.942 13.577C104.186 18.438 103.351 23.538 102.76 27.0517C103.997 26.6702 105.235 26.2887 106.502 25.8719C107.426 19.229 108.592 12.4366 109.813 6.47595L115.59 5.53086C113.355 16.2691 112.09 28.314 111.243 38.0595L104.909 38.7068ZM87.7756 14.5971L88.5911 10.1665C93.2815 9.49287 103.239 8.27497 108.252 7.71388L107.383 11.8137C102.408 12.4726 92.4324 13.8922 87.7756 14.5971Z" fill="black"/>
<path d="M72.4909 34.5737C72.9339 32.1724 75.1077 30.6605 76.9305 30.5415C78.9105 30.4123 80.4063 32.0522 79.6176 34.4761C78.9893 36.4552 77.4288 37.6931 75.5431 37.8162C73.7832 37.9311 72.0501 37.0083 72.4909 34.5737Z" fill="black"/>
<path d="M44.556 25.5367C47.1852 25.1981 68.3298 22.7488 71.5246 22.3733L70.5075 26.6165L61.6794 27.7272C61.1248 29.8685 60.4023 32.8228 60.1554 33.8747L53.6443 34.7006C54.0354 33.4388 54.7915 30.5158 55.3548 28.5076L43.3049 30.0625L44.556 25.5367ZM45.4574 32.094L51.3972 30.7373C52.6335 37.1056 56.7063 37.6083 60.3519 37.3704C63.4005 37.1714 67.5251 36.5347 70.0685 35.3663L67.3683 39.452C65.564 40.3383 62.7843 40.787 59.61 40.9942C53.5758 41.388 47.1479 40.1034 45.4574 32.094ZM45.9214 24.2113C46.671 21.1885 47.6622 17.515 48.427 14.7251C47.7084 14.8389 47.1449 14.9091 46.7071 14.971L47.8531 10.2851C53.0799 9.60979 64.7842 8.07739 71.2638 7.25354C70.7417 9.89394 69.795 13.765 69.1516 16.4801C69.7758 16.3726 70.3393 16.3024 70.84 16.2363L70.0569 20.1969C65.4717 21.0307 52.7001 23.134 45.9214 24.2113ZM52.602 18.7297C54.2298 18.5232 59.0166 17.8767 63.5834 17.2445C63.9126 15.5189 64.2603 13.5916 64.4444 12.5437C62.3788 12.8122 57.8749 13.4402 53.838 13.971C53.3289 15.842 52.8262 17.8129 52.602 18.7297Z" fill="black"/>
<path d="M15.7928 29.92C18.4154 29.4816 39.51 26.267 42.6983 25.7917L41.9977 30.0476C40.9042 30.2192 36.4718 30.9763 31.5073 31.8015C30.4771 35.8451 29.4036 40.1922 28.953 41.9925L22.3022 43.0949L25.1101 32.9207C20.4891 33.6901 16.4316 34.3893 15.0282 34.648L15.7928 29.92ZM16.07 28.3649C21.1935 24.6556 26.2854 19.9794 29.7931 16.1752C26.0076 16.6895 21.3801 17.3591 19.3438 17.5923L20.1983 12.7916C22.9217 12.4468 33.2854 11.169 40.2722 10.3789C39.0239 12.532 37.2794 14.8178 35.2791 17.0535L37.4324 16.679C38.2813 19.5307 40.3245 22.3044 42.8087 24.5815L35.7049 25.513C34.2265 24.1392 32.9963 22.2146 32.271 20.2905C29.7852 22.8252 27.2235 25.1643 25.1343 27.0048L16.07 28.3649Z" fill="black"/>
</svg>
