<svg width="385" height="150" viewBox="0 0 385 150" fill="none" xmlns="http://www.w3.org/2000/svg">
<g style="mix-blend-mode:multiply">
<path d="M8.43953 120.807C150.902 82.5463 232.182 69.8219 382.291 78.9046" stroke="#00FF59" stroke-width="60"/>
</g>
<path d="M348.651 97.1548C349.178 92.0696 349.851 86.5654 350.642 80.917C345.013 86.1986 334.676 93.1071 325.466 94.8912C326.329 90.3302 328.218 81.7435 329.37 76.3445C328.269 76.5984 327.333 76.7505 326.655 76.8858L328.065 70.833C331.128 70.36 338.345 68.979 340.975 68.4433C341.475 66.2266 342.221 63.1747 342.709 60.7768C340.113 61.1737 333.39 62.204 328.8 63.0041L330.12 57.5487L351.829 54.3118C350.969 58.9181 348.631 68.5352 347.809 72.411C346.281 72.6928 342.045 73.6517 337.721 74.5709C336.953 77.9428 335.962 82.5122 335.569 84.4034C340.283 82.8672 345.546 79.8845 351.406 75.4979C352.582 67.8223 353.928 60.1356 355.328 53.2644L363.195 51.9774C361.885 58.2512 360.813 64.8735 359.949 71.3912C361.86 71.0389 368.98 70.3801 370.931 69.9798L369.983 75.8659C368.16 76.2579 361.043 76.962 359.178 77.3568C358.405 83.9595 357.795 90.4152 357.275 96.2734L348.651 97.1548Z" fill="black"/>
<path d="M308.831 99.7533C310.215 86.0578 312.739 69.4212 315.508 55.8629L323.375 54.5759C321.932 61.4499 320.816 68.7121 319.905 75.8244C321.773 75.4749 323.681 75.0774 325.59 74.6798L324.641 80.566L319.174 81.7419C318.448 87.75 317.925 93.5629 317.455 98.8719L308.831 99.7533ZM284.874 71.8313L286.226 65.5548C287.969 65.259 291.204 64.7749 294.864 64.2175C295.432 61.7233 296.013 58.7733 296.442 56.7886L304.535 55.6689C304.06 57.611 303.265 60.5751 302.606 62.9842C306.819 62.3452 310.69 61.7286 312.607 61.4669L311.175 67.8397C307.347 68.4536 290.915 70.891 284.874 71.8313ZM285.874 83.8696C287.042 78.0601 291.358 72.4092 298.39 71.4952C305.896 70.5958 310.323 74.5387 309.323 81.6112C308.255 88.9613 302.406 94.1663 294.848 94.9325C287.93 95.6115 284.607 90.1406 285.874 83.8696ZM293.141 83.2589C292.293 86.7269 293.661 88.5942 295.712 88.4148C298.488 88.1426 300.851 85.4858 301.607 81.9328C302.256 78.7053 300.336 77.602 298.12 77.8832C295.86 78.1672 293.89 80.2523 293.141 83.2589Z" fill="black"/>
<path d="M269.51 90.5803C270.08 87.449 270.909 83.0267 271.808 78.3722L267.809 78.9972L269.051 73.0009L272.928 72.4749C273.122 71.5066 273.277 70.5865 273.478 69.7088L269.903 70.2606L270.889 64.281L274.637 63.7634C275.02 61.7363 275.422 59.981 275.715 58.5513L284.227 57.2677C282.406 65.577 278.461 81.5327 277.031 89.9074L269.51 90.5803ZM245.317 88.0185C246.801 79.1397 248.724 67.7752 250.209 60.8984L258.049 59.8408C257.882 60.5797 257.673 61.3214 257.509 62.1056C261.12 61.4604 265.887 60.7398 271.256 60.0254C269.814 66.2622 267.42 76.338 265.979 82.5748C262.905 83.549 258.22 84.8558 254.181 85.5289L253.649 81.3319C253.336 83.1269 253.058 84.7832 252.85 86.2073L245.317 88.0185ZM248.966 89.919L257.054 88.0715C258.844 98.3747 264.402 99.2405 269.367 98.9165C273.518 98.6456 279.135 97.7785 282.598 96.1874L278.892 101.298C276.435 102.505 272.649 103.116 268.327 103.398C260.11 103.934 251.342 101.958 248.966 89.919ZM253.866 80.0437C255.78 79.7368 257.813 79.2856 259.761 78.8399C260.801 74.3583 262.077 68.2233 262.421 66.2443C260.932 66.4779 258.593 66.8581 256.379 67.1846C255.456 71.4766 254.593 76.0376 253.866 80.0437Z" fill="black"/>
<path d="M229.212 104.95C229.608 101.147 230.073 97.0672 230.62 92.9363C223.51 95.9484 214.63 98.8485 204.045 101.951L205.326 94.587C206.849 94.2146 208.375 93.8875 209.855 93.5179C210.324 87.5265 211.331 75.9488 211.745 72.4181L218.988 71.4448C218.54 75.1143 217.566 85.8709 217.051 91.8197L219.883 91.0889C220.824 84.4296 221.891 75.7601 222.485 71.0346L230.112 70.6733L227.147 89.1132C228.538 88.7039 229.93 88.2946 231.316 87.7946C232.61 78.6552 234.193 69.315 235.889 61.0594L243.756 59.7724C242.446 66.0462 241.374 72.6684 240.51 79.1861C242.421 78.8339 244.33 78.4364 246.28 78.036L245.332 83.9222C243.51 84.3142 241.604 84.757 239.739 85.1518C238.967 91.7545 238.356 98.2101 237.836 104.068L229.212 104.95ZM206.736 72.0624L207.847 66.0292C214.148 65.1174 227.493 63.4729 234.192 62.7172L233.009 68.3002C226.362 69.189 212.992 71.1081 206.736 72.0624Z" fill="black"/>
<path d="M171.578 81.0001C161.756 81.9597 157.557 78.8665 158.999 73.3121C160.1 69.0996 166.689 65.3479 176.169 64.4107C186.505 63.4176 191.573 65.999 190.765 70.7384C189.87 76.1206 182.043 79.9986 171.578 81.0001ZM153.696 90.1755L155.429 84.4656C159.009 84.0045 187.803 80.6692 192.154 80.1578L190.739 85.4828C187.199 85.8959 158.554 89.54 153.696 90.1755ZM155.896 104.138L157.009 98.7868C162.377 98.0724 175.717 96.3372 179.93 95.6982L180.197 93.8607C175.935 94.4119 163.791 96.0235 157.529 96.8872L158.593 91.4485C164.814 90.6329 181.951 88.468 188.986 87.5994C188.328 90.6909 187.287 97.1292 186.808 99.6631L166.625 102.573C166.735 104.249 168.191 104.837 172.468 104.512C177.601 104.132 185.821 102.321 193.695 97.8485L191.869 102.791C185.854 106.778 178.722 108.791 172.87 109.355C161.253 110.477 158.192 108.356 158.321 103.752C157.385 103.904 156.578 104.048 155.896 104.138ZM166.005 73.3099C165.677 74.8784 167.748 75.6533 172.826 75.0944C177.394 74.6143 182.607 73.5004 182.988 71.428C183.242 70.0464 180.678 69.6222 175.303 70.246C170.864 70.7177 166.372 71.6934 166.005 73.3099Z" fill="black"/>
<path d="M141.849 87.718C142.068 86.4751 142.282 85.1416 142.496 83.808L138.283 84.447L139.525 78.4507L143.484 77.8738C143.608 77.1377 143.772 76.3534 143.893 75.572L139.936 76.1942L140.921 70.2147L144.966 69.6321C145.118 68.6667 145.313 67.6984 145.468 66.7783L153.98 65.4947C152.409 72.3771 150.604 80.2758 149.382 86.5893L141.849 87.718ZM115.314 79.5757C116.37 73.364 122.146 68.3458 129.113 67.7546C135.869 67.2227 140.465 70.4719 139.62 76.6244C138.685 83.3742 132.871 87.8033 125.417 88.8359C118.131 89.8119 114.227 85.9715 115.314 79.5757ZM117.109 105.759L118.206 100.181C123.321 99.5291 135.625 97.7251 140.046 96.9816L140.551 94.173C136.463 94.7583 125.899 96.2212 118.668 97.3757L119.731 91.9371C126.204 91.0141 142.595 88.6248 149.411 87.6795C148.77 91.0429 147.588 97.9454 147.123 100.706L127.82 103.922C127.946 106.508 129.335 107.373 133.312 107.068C138.359 106.693 146.408 104.893 154.111 100.432L152.285 105.374C146.398 109.353 139.437 111.355 133.714 111.91C122.739 112.99 119.571 110.558 119.531 105.328C118.598 105.525 117.745 105.626 117.109 105.759ZM122.395 78.7496C121.854 81.6516 123.7 82.9416 126.256 82.5928C129.149 82.131 131.265 80.3093 131.692 77.6423C132.145 74.7006 130.699 73.6119 127.794 73.8925C124.805 74.1786 122.849 76.4903 122.395 78.7496Z" fill="black"/>
<path d="M101.623 92.9824C102.093 90.3126 102.829 86.4424 103.556 82.4362L96.5388 83.5767L97.642 78.09L104.577 77.0004C105.155 74.005 105.708 71.2843 106.097 69.3477L114.609 68.0642C113.202 74.1623 110.23 85.9138 109.131 92.1283L101.623 92.9824ZM73.1166 96.1169C79.3421 89.4313 85.325 77.7108 88.5031 71.0875L95.9631 70.1456C94.7489 73.2735 92.912 77.3976 90.901 81.4875L94.8648 80.3188C95.5737 84.5952 97.3526 88.8019 99.6464 92.3378L91.2685 93.7037C90.0566 91.5986 89.1398 88.7463 88.6082 85.8689C86.6133 89.5482 84.5461 92.7773 82.7444 94.806L73.1166 96.1169ZM77.8945 102.812L79.405 96.9805C85.6268 96.165 101.311 94.1403 109.034 93.2723C107.407 101.933 106.121 108.569 105.218 113.178L97.2759 113.97C98.3099 109.397 99.4382 103.636 100.189 99.9923C95.4532 100.529 85.1435 101.93 77.8945 102.812Z" fill="black"/>
<path d="M38.3906 95.7442C41.9708 95.283 70.7645 91.9478 75.1151 91.4363L73.73 97.2145L69.3824 97.7713C68.6271 100.687 67.6433 104.71 67.307 106.143L58.6545 107.253C59.1841 105.49 60.2566 101.507 60.9838 98.8199C60.302 98.9099 59.6202 98.9999 58.9354 99.0446C58.1831 102.006 57.1993 106.029 56.863 107.461L49.8708 108.327C52.4184 111.801 56.3057 112.093 59.9007 111.859C64.052 111.588 69.6688 110.721 73.1323 109.13L69.4553 114.693C66.9982 115.9 63.2129 116.511 58.8904 116.793C50.6732 117.33 41.9201 115.58 39.618 104.674L47.7066 102.826C47.9695 104.22 48.3489 105.423 48.8021 106.44C49.3199 104.495 50.0161 101.993 50.5398 100.139C44.2294 100.914 38.6038 101.646 36.6868 101.907L38.3906 95.7442ZM41.8424 82.7783C43.1891 77.7307 49.4135 73.0018 58.8938 72.0645C69.2301 71.0714 74.6024 74.361 73.6084 80.2046C72.5215 86.6004 65.0044 91.2772 54.5397 92.2786C44.717 93.2382 40.0825 89.4 41.8424 82.7783ZM48.8199 83.0055C48.3008 85.5875 50.7094 86.9319 55.7875 86.3729C60.355 85.8928 65.2707 84.1614 65.8311 80.8942C66.2647 78.3178 63.403 77.276 58.0282 77.8998C53.5891 78.3715 49.4866 80.0498 48.8199 83.0055Z" fill="black"/>
<path d="M244.379 42.5691C245.873 34.5087 248.963 17.9717 250.584 10.5401L259.096 9.25651C257.274 17.5658 253.33 33.5215 251.899 41.8962L244.379 42.5691ZM220.623 26.2826C221.91 19.0092 227.663 12.9915 234.93 12.3807C241.601 11.8544 246.424 15.9533 245.356 23.3033C244.327 31.2424 238.484 36.538 230.645 37.5956C223.53 38.5605 219.316 33.9213 220.623 26.2826ZM223.834 41.9078L231.923 40.0603C233.713 50.3635 239.271 51.2293 244.235 50.9053C248.387 50.6344 254.003 49.7673 257.467 48.1762L253.76 53.2868C251.303 54.4938 247.518 55.1048 243.195 55.3869C234.978 55.9232 226.21 53.9473 223.834 41.9078ZM227.703 25.4565C226.908 29.7401 229.053 31.6477 231.483 31.3526C234.721 30.9138 236.818 28.1378 237.429 24.3213C238.095 20.046 236.43 18.2436 233.612 18.5186C230.279 18.8271 228.352 22.229 227.703 25.4565Z" fill="black"/>
<path d="M182.095 38.1248C184.22 37.7586 195.414 36.0725 204.987 34.5832L209.158 20.1143C201.878 21.1809 191.326 22.8251 187.584 23.4334L189.15 17.1429C195.959 16.1069 211.207 13.9743 219.725 12.7813L213.075 33.3728C215.756 32.9703 217.798 32.655 218.734 32.5029L217.78 38.2985C216.334 38.5294 210.723 39.4871 204.262 40.5913C202.721 46.6072 200.883 54.0075 200.164 56.83L191.107 58.3311C192.05 54.9934 194.022 47.6754 195.59 42.0673C189.001 43.1798 183.008 44.208 181.054 44.563L182.095 38.1248Z" fill="black"/>
<path d="M167.673 41.6596L169.85 30.233L164.065 31.1565L165.168 25.6698L170.868 24.7518C171.539 21.2043 172.182 17.8862 172.679 15.6241L181.191 14.3406C179.523 21.0473 176.456 33.988 175.008 40.7714L167.673 41.6596ZM140.402 44.6224C145.207 39.2126 151.645 31.8306 155.739 25.4206C151.7 26.0937 146.888 26.7718 143.955 27.2817L145.417 21.362C147.077 21.1172 149.166 20.8444 151.382 20.5632C151.747 18.9013 152.062 17.1517 152.294 16.09L160.387 14.9703C160.081 16.2188 159.671 17.8381 159.221 19.5056C162.459 19.0667 165.526 18.6391 167.828 18.3523C166.146 21.5562 163.291 25.8833 160.256 30.0856L163.336 29.202C163.875 32.8525 165.099 36.4583 166.715 39.4925L158.337 40.8583C157.754 39.1673 157.264 36.9242 156.942 34.6246C154.253 38.2127 151.667 41.3846 149.902 43.3199L140.402 44.6224ZM144.668 52.0339C146.841 46.4773 154.226 42.4007 162.797 42.0233C171.069 41.6655 175.841 45.6313 174.473 50.3617C172.48 57.3626 164.88 60.7708 155.533 61.1078C146.488 61.4706 142.651 57.3528 144.668 52.0339ZM152.102 52.0038C151.202 54.0191 153.171 55.2102 157.105 54.9079C161.479 54.7589 165.38 53.2758 166.287 50.714C167.013 48.6645 165.236 47.7794 160.528 48.0867C156.465 48.3973 152.959 49.9912 152.102 52.0038Z" fill="black"/>
<path d="M127.053 61.9654C127.438 57.9816 127.936 53.7629 128.514 49.448C121.331 52.6469 112.121 55.7506 101.03 59.0225L102.312 51.6585C103.835 51.2861 105.361 50.959 106.841 50.5894C107.31 44.5981 108.316 33.0203 108.73 29.4896L115.973 28.5164C115.522 32.1405 114.548 42.8971 114.077 48.8431L116.909 48.1123C117.807 41.4559 118.874 32.7863 119.471 28.1061L127.098 27.7448C126.069 34.3643 124.932 41.3094 124.126 46.0942C125.812 45.5746 127.497 45.0551 129.222 44.4875C130.48 35.4415 132.068 26.1919 133.73 18.075L141.598 16.788C138.555 31.4108 136.832 47.8131 135.678 61.084L127.053 61.9654ZM103.722 29.134L104.832 23.1007C111.219 22.1833 124.779 20.5249 131.605 19.7608L130.423 25.3438C123.647 26.241 110.063 28.1741 103.722 29.134Z" fill="black"/>
<path d="M82.9079 56.3371C83.5111 53.0671 86.4712 51.0083 88.9535 50.8463C91.6497 50.6703 93.6866 52.9035 92.6126 56.2042C91.757 58.8992 89.6321 60.585 87.0642 60.7525C84.6675 60.909 82.3076 59.6524 82.9079 56.3371Z" fill="black"/>
<path d="M44.8672 44.0309C48.4474 43.5698 77.2411 40.2345 81.5917 39.7231L80.2066 45.5013L68.185 47.0139C67.4298 49.9298 66.4459 53.9527 66.1096 55.3852L57.2432 56.5099C57.7758 54.7916 58.8054 50.8112 59.5725 48.0765L43.1634 50.1939L44.8672 44.0309ZM46.0947 52.9603L54.1832 51.1128C55.8667 59.7849 61.4128 60.4695 66.3773 60.1455C70.5287 59.8745 76.1454 59.0074 79.6089 57.4163L75.9319 62.9801C73.4749 64.187 69.6895 64.798 65.367 65.0801C57.1499 65.6164 48.3967 63.8671 46.0947 52.9603ZM46.7265 42.226C47.7472 38.1097 49.097 33.1074 50.1384 29.3082C49.16 29.4631 48.3926 29.5587 47.7964 29.6431L49.357 23.2619C56.4746 22.3424 72.4129 20.2557 81.2365 19.1338C80.5256 22.7293 79.2364 28.0007 78.3602 31.6981C79.2103 31.5516 79.9777 31.456 80.6595 31.366L79.5931 36.7594C73.3492 37.8949 55.9574 40.759 46.7265 42.226ZM55.8238 34.7615C58.0404 34.4803 64.5589 33.5999 70.7778 32.739C71.2261 30.3891 71.6995 27.7646 71.9502 26.3376C69.1374 26.7032 63.0041 27.5585 57.5069 28.2813C56.8136 30.8292 56.1292 33.513 55.8238 34.7615Z" fill="black"/>
<path d="M5.69881 50.0002C9.27015 49.4031 37.9959 45.0258 42.3376 44.3784L41.3834 50.174C39.8944 50.4076 33.8585 51.4386 27.0981 52.5623C25.6952 58.0687 24.2335 63.9883 23.6198 66.44L14.5631 67.9411L18.3867 54.0864C12.094 55.1341 6.56878 56.0863 4.65768 56.4385L5.69881 50.0002ZM6.07636 47.8825C13.0533 42.8314 19.9872 36.4636 24.7637 31.2832C19.6089 31.9836 13.3074 32.8954 10.5344 33.2129L11.698 26.6756C15.4066 26.2061 29.5194 24.466 39.0337 23.39C37.3339 26.3221 34.9583 29.4348 32.2343 32.4792L35.1667 31.9693C36.3227 35.8525 39.105 39.6296 42.4879 42.7305L32.8142 43.9989C30.801 42.1282 29.1257 39.5074 28.1381 36.8872C24.753 40.3388 21.2647 43.5241 18.4196 46.0304L6.07636 47.8825Z" fill="black"/>
</svg>
