<svg width="352" height="76" viewBox="0 0 352 76" fill="none" xmlns="http://www.w3.org/2000/svg">
<g style="mix-blend-mode:multiply">
<path d="M9.65706 36H352L346.206 76H0L9.65706 36Z" fill="#00FF59"/>
</g>
<path d="M40.6887 66.1818C30.4104 66.1818 19.0592 63.2452 16.9697 51.3292L27.7562 49.6915C29.2245 59.1791 36.4531 60.7039 42.4394 60.7039C48.0867 60.7039 55.7672 60.0826 60.6239 58.3884L55.3154 64.4311C51.8705 65.73 46.6184 66.1818 40.6887 66.1818ZM13.0165 24.843L15.5578 17.5014L27.6997 16.7108C28.6598 14.3954 29.9022 11.6281 30.5234 10.0469L41.2534 9.31272C40.4628 11.0634 39.3333 13.6047 38.2038 15.9766C42.2135 15.6943 46.2796 15.4684 50.0633 15.186L47.7479 21.7934C40.011 22.5276 22.843 23.9959 13.0165 24.843ZM13.1295 37.8884C14.8237 30.3774 21.7135 24.843 31.0881 24.3347C37.865 23.9394 42.5523 26.4243 42.9476 31.5069L49.2162 30.9422C51.3057 23.2617 53.3953 15.8637 54.8071 11.1199L66.1019 10.2163C62.7134 21.5111 55.5413 43.197 52.7176 54.6612L42.7782 54.8871L47.4091 37.6061L41.5358 38.1708C38.6556 44.3265 31.9352 47.7714 24.9325 48.2796C16.2355 48.9573 11.5482 45.1171 13.1295 37.8884ZM22.1653 37.0978C21.4876 40.2603 23.5771 41.6722 26.3443 41.3898C29.7892 40.9945 32.1611 38.7356 32.7823 35.2907C33.3471 32.354 31.7658 30.9422 28.6598 31.1116C25.2149 31.394 22.73 34.3306 22.1653 37.0978ZM85.468 64.9394C85.9762 62.1722 86.5974 59.292 87.1622 56.4118L78.4087 57.0895C78.2393 53.7011 78.1828 49.635 78.3523 45.23C75.698 50.1433 73.1002 54.4917 70.7848 58.219L59.4336 59.0661C67.9046 47.0372 76.3757 32.2975 80.8371 22.5841C77.844 22.81 70.6154 23.3747 66.8881 23.7135L68.9776 15.9202C73.9473 15.5813 86.4845 14.7907 92.6401 14.4518C89.5341 22.4146 86.3151 29.5868 83.1525 36.0248L86.541 35.4036C86.7104 42.1805 87.0492 49.1267 87.4445 55.0565C90.6071 40.4862 94.6732 24.5042 98.8522 11.0069L108.453 10.0469C106.137 17.2755 104.104 24.8995 102.297 32.467C103.765 32.1846 105.29 31.9587 106.759 31.6763C108.509 24.5042 110.316 17.4449 112.124 11.0069L121.724 10.0469C116.472 27.9491 112.801 48.1667 110.147 64.5441L99.8688 64.9394C101.281 56.8072 103.088 47.8843 105.121 38.9614C103.596 39.2438 102.128 39.5262 100.603 39.7521C98.7393 48.449 97.1016 56.9201 95.7462 64.5441L85.468 64.9394ZM121.525 48.9008C122.993 44.4959 124.687 39.1873 126.043 35.0083C124.518 35.1212 123.162 35.2342 122.146 35.2907L124.518 27.6102C131.803 26.989 149.592 25.5772 155.861 24.956C156.425 23.6006 157.216 21.4546 157.781 20.0427C151.795 20.4381 136.603 21.7934 126.043 22.5841L128.245 14.5083C137.733 13.8306 161.734 12.2494 171.73 11.6846C170.262 16.7673 166.704 27.4408 165.292 31.6763C161.339 32.0152 148.576 33.1447 137.563 34.0482C136.999 36.1378 136.434 38.3402 136.208 39.3568C143.154 38.792 160.774 37.2108 167.607 36.5331L164.671 44.6653L149.31 46.1336C148.632 48.6749 147.898 51.4986 147.333 53.7576C156.369 53.0234 164.558 52.3457 166.986 52.1763L165.235 59.292C160.548 59.6873 122.824 63.4146 116.442 64.0923L118.362 56.1859C120.226 56.0165 127.285 55.3953 135.474 54.7176C136.208 52.4587 136.999 49.635 137.733 47.2631C131.803 47.8843 126.099 48.449 121.525 48.9008ZM188.965 46.9243C192.975 35.1212 198.566 18.1226 200.712 11.7411L212.854 10.9505L208.788 22.5841C214.096 22.0758 220.478 21.4546 226.859 20.8334L229.457 13.2659L241.147 12.5317C239.114 17.7838 235.274 27.6667 232.62 34.613C233.975 34.5 235.161 34.3871 236.121 34.2741L233.184 42.124C229.118 42.5193 223.64 43.1405 217.767 43.7617L215.113 53.7576C224.149 53.0234 232.337 52.3457 234.766 52.1763L233.015 59.292C228.328 59.6873 190.603 63.4146 184.222 64.0923L186.142 56.1859C188.005 56.0165 195.065 55.3953 203.253 54.7176C204.157 51.7245 205.286 47.9408 206.133 45.0041C199.865 45.6818 193.766 46.3595 188.965 46.9243ZM203.649 37.4367C207.658 37.0978 214.943 36.3637 221.89 35.686L224.318 28.5703C218.049 29.135 211.385 29.7562 206.077 30.2645C205.06 33.2011 204.213 35.7424 203.649 37.4367ZM257.773 64.9394C258.733 59.9132 259.862 54.5482 261.104 49.1267C254.836 53.1928 245.574 57.5978 237.385 58.5578C240.153 47.6584 246.478 26.029 250.036 13.6612L259.58 13.4918C256.982 22.7535 252.182 40.8251 250.431 47.6584C254.045 46.6984 258.055 45.0606 262.573 42.7452C265.171 31.8458 268.164 20.7769 271.157 11.0069L281.322 10.0469C278.95 17.332 276.917 25.0124 275.11 32.6364L280.193 31.7893C281.887 24.5606 283.75 17.5014 285.558 11.0069L295.723 10.0469C290.471 27.9491 286.8 48.1667 284.146 64.5441L273.303 64.9394C274.715 56.8636 276.522 47.9408 278.498 39.0744C276.804 39.3568 275.11 39.6956 273.416 39.978C271.552 48.562 269.971 56.9766 268.615 64.5441L257.773 64.9394ZM290.497 59.0661C300.324 46.8113 310.15 31.8458 315.289 22.0193C311.562 22.3582 302.583 23.0923 297.952 23.4312L300.041 15.6378C306.084 15.2425 321.332 14.2259 328.787 13.8871C324.833 22.5841 320.767 30.321 316.758 37.2108L322.461 35.9683C322.857 42.2369 324.269 48.562 326.189 54.1529C329.125 39.8086 332.853 24.2218 336.693 11.0069L347.14 10.0469C344.882 17.7273 342.905 25.8595 341.211 33.8788C343.752 33.5964 346.293 33.2576 348.891 32.9188L347.14 40.1474C344.712 40.4862 342.171 40.8816 339.686 41.2204C338.105 49.3526 336.749 57.3154 335.563 64.5441L324.156 64.9394L325.737 56.4683L315.967 57.0895C314.725 53.1364 313.934 47.7149 313.595 42.4628C309.868 48.5055 306.253 53.7576 302.978 58.219L290.497 59.0661Z" fill="black"/>
</svg>
