<svg width="358" height="115" viewBox="0 0 358 115" fill="none" xmlns="http://www.w3.org/2000/svg">
<path d="M27.1077 49.0668C25.9234 49.0668 24.8758 48.9093 23.9193 48.5943C22.9172 48.2792 22.0518 47.8067 21.323 47.1241C20.5942 46.494 20.0021 45.7064 19.6377 44.6563C19.1822 43.6587 19 42.4511 19 41.0334C19 39.6683 19.1822 38.5131 19.6377 37.463C20.0021 36.4654 20.5942 35.6253 21.323 34.9427C22.0518 34.3126 22.9172 33.7876 23.9193 33.4726C24.8758 33.1575 25.9689 33 27.1532 33H46.3292C47.5134 33 48.6066 33.1575 49.6087 33.4726C50.5652 33.7876 51.4306 34.3126 52.1594 34.9427C52.8882 35.6253 53.4348 36.4654 53.8903 37.463C54.2546 38.5131 54.4824 39.6683 54.4824 41.0334C54.4824 42.4511 54.2546 43.6587 53.8903 44.6563C53.4348 45.7064 52.8882 46.494 52.1594 47.1241C51.4306 47.8067 50.5652 48.2792 49.6087 48.5943C48.6066 48.9093 47.5134 49.0668 46.3747 49.0668H27.1077ZM48.3333 58.6229V65.1337C48.3333 65.7637 48.1967 66.2363 47.9689 66.5513C47.6956 66.8663 47.2857 67.0239 46.6936 67.0239H42.2753C41.6377 67.0239 41.2277 66.8663 41 66.5513C40.7267 66.2363 40.6356 65.7637 40.6356 65.1337V58.6229H36.9462V65.1337C36.9462 65.7637 36.8095 66.2363 36.5818 66.5513C36.3085 66.8663 35.8985 67.0239 35.3064 67.0239H30.8882C30.2505 67.0239 29.8406 66.8663 29.6128 66.5513C29.3395 66.2363 29.2484 65.7637 29.2484 65.1337V58.6229H20.6398C20.0932 58.6229 19.6832 58.5179 19.4099 58.2029C19.1366 57.9403 19 57.4678 19 56.7327V54.4749C19 53.7924 19.1366 53.3198 19.4099 53.0048C19.6832 52.7422 20.0932 52.5847 20.6398 52.5847H52.8426C53.3892 52.5847 53.7992 52.7422 54.0724 53.0048C54.3457 53.3198 54.4824 53.7924 54.4824 54.4749V56.7327C54.4824 57.4678 54.3457 57.9403 54.0724 58.2029C53.7992 58.5179 53.3892 58.6229 52.8426 58.6229H48.3333ZM54.4824 75.1098C54.4824 75.7399 54.3457 76.2124 54.118 76.5274C53.8447 76.8425 53.4348 77 52.8426 77H20.6398C20.0021 77 19.5921 76.8425 19.3644 76.5274C19.0911 76.2124 19 75.7399 19 75.1098V64.7661C19 64.136 19.0911 63.6635 19.3644 63.3484C19.5921 63.0334 20.0021 62.8759 20.6398 62.8759H25.1035C25.6956 62.8759 26.1056 63.0334 26.3789 63.3484C26.6066 63.6635 26.7433 64.136 26.7433 64.7661V70.9618H52.8426C53.4348 70.9618 53.8447 71.1193 54.118 71.4344C54.3457 71.7494 54.4824 72.222 54.4824 72.852V75.1098ZM45.2816 42.9761C45.9648 42.9761 46.4658 42.8186 46.7391 42.4511C47.0124 42.136 47.1491 41.6635 47.1491 41.0334C47.1491 39.7733 46.5114 39.0907 45.2816 39.0907H28.2008C26.9255 39.0907 26.3333 39.7733 26.3333 41.0334C26.3333 41.6635 26.47 42.136 26.7433 42.4511C27.0166 42.8186 27.472 42.9761 28.2008 42.9761H45.2816Z" fill="black"/>
<path d="M58.3138 62.4558C58.3138 61.8258 58.4049 61.3532 58.6782 61.0382C58.9059 60.7231 59.3159 60.5656 59.9536 60.5656H91.4732C92.0653 60.5656 92.4753 60.7231 92.7486 61.0382C92.9763 61.3532 93.113 61.8258 93.113 62.4558V75.1098C93.113 75.7399 92.9763 76.2124 92.7486 76.5274C92.4753 76.8425 92.0653 77 91.4732 77H87.0094C86.3718 77 85.9618 76.8425 85.7341 76.5274C85.4608 76.2124 85.3697 75.7399 85.3697 75.1098V66.6563H59.9536C59.3159 66.6563 58.9059 66.4988 58.6782 66.1838C58.4049 65.8687 58.3138 65.3962 58.3138 64.7661V62.4558ZM79.0384 55.9451C77.2165 55.21 75.4856 54.2649 73.8003 53.1098C72.0695 52.0597 70.5208 50.642 69.1999 48.9093C67.879 50.642 66.3759 52.0597 64.6451 53.1098C62.9142 54.2649 61.1378 55.21 59.407 55.9451C59.0426 56.1026 58.8148 56.1551 58.6326 56.0501C58.4049 55.9976 58.3138 55.6826 58.3138 55.1575V50.432C58.3138 50.0119 58.3594 49.5919 58.5415 49.2243C58.6326 48.9093 58.8604 48.6468 59.1792 48.4368C59.908 48.0692 60.6368 47.5967 61.3656 47.0191C62.0943 46.494 62.732 45.864 63.3697 45.1289C63.9618 44.4463 64.4629 43.6587 64.8728 42.8186C65.2372 41.9785 65.4194 41.0859 65.4194 40.0883V34.8902C65.4194 34.2601 65.5105 33.7876 65.7838 33.4726C66.0115 33.1575 66.4215 33 67.0591 33H71.3863C71.9784 33 72.3883 33.1575 72.6616 33.4726C72.8894 33.7876 73.026 34.2601 73.026 34.8902V40.0883C73.026 41.0859 73.2082 41.9785 73.6181 42.8186C73.9825 43.6587 74.438 44.4463 75.0757 45.1289C75.6678 45.864 76.3511 46.494 77.1254 47.0191C77.8542 47.5967 78.5374 48.0692 79.2662 48.4368C79.5395 48.6468 79.7672 48.9093 79.9494 49.2243C80.0405 49.5919 80.1316 50.0119 80.1316 50.432V55.1575C80.1316 55.6826 80.0405 55.9976 79.8583 56.0501C79.6306 56.1551 79.3573 56.1026 79.0384 55.9451ZM87.0094 56.2601C86.3718 56.2601 85.9618 56.1026 85.7341 55.7876C85.4608 55.4726 85.3697 55 85.3697 54.3699V45.0764H80.8604C80.3138 45.0764 79.9038 44.9714 79.6306 44.6563C79.3573 44.3938 79.2206 43.9212 79.2206 43.1862V40.8759C79.2206 40.1933 79.3573 39.7208 79.6306 39.4057C79.9038 39.1432 80.3138 38.9857 80.8604 38.9857H85.3697V34.8902C85.3697 34.2601 85.4608 33.7876 85.7341 33.4726C85.9618 33.1575 86.3718 33 87.0094 33H91.4732C92.0653 33 92.4753 33.1575 92.7486 33.4726C92.9763 33.7876 93.113 34.2601 93.113 34.8902V54.3699C93.113 55 92.9763 55.4726 92.7486 55.7876C92.4753 56.1026 92.0653 56.2601 91.4732 56.2601H87.0094Z" fill="black"/>
<path d="M97.9464 66.1838C97.9464 65.5537 98.0375 65.0811 98.3108 64.7661C98.5386 64.4511 98.9485 64.2936 99.5862 64.2936H125.002V62.3508H99.3584C98.4019 62.3508 97.9464 61.8783 97.9464 60.8282V58.5179C97.9464 57.5203 98.4019 56.9952 99.3584 56.9952H131.106C131.698 56.9952 132.108 57.1527 132.381 57.4678C132.609 57.7828 132.746 58.2554 132.746 58.8854V67.8115C132.746 68.4415 132.609 68.9141 132.381 69.2291C132.108 69.5442 131.698 69.7017 131.106 69.7017H105.69V71.6969H131.334C132.245 71.6969 132.746 72.1694 132.746 73.2196V75.4773C132.746 76.4749 132.245 77 131.334 77H99.5862C98.9485 77 98.5386 76.8425 98.3108 76.5274C98.0375 76.2124 97.9464 75.7399 97.9464 75.1098V66.1838ZM119.081 44.7613C119.081 46.389 118.762 47.7542 118.216 48.8568C117.623 50.0119 116.849 50.9045 115.893 51.5871C114.891 52.3222 113.706 52.8473 112.431 53.1623C111.11 53.4773 109.744 53.6348 108.286 53.6348C106.828 53.6348 105.462 53.4773 104.187 53.1623C102.866 52.8473 101.727 52.3222 100.77 51.5871C99.7684 50.9045 98.9485 50.0119 98.4019 48.8568C97.7643 47.7542 97.491 46.389 97.491 44.7613V41.8735C97.491 40.2983 97.7643 38.9332 98.4019 37.778C98.9485 36.6754 99.7684 35.7303 100.77 34.9952C101.727 34.3126 102.866 33.7876 104.187 33.4726C105.462 33.1575 106.828 33 108.286 33C109.744 33 111.11 33.1575 112.431 33.4726C113.706 33.7876 114.891 34.3126 115.893 34.9952C116.849 35.7303 117.623 36.6754 118.216 37.778C118.762 38.9332 119.081 40.2983 119.081 41.8735V44.7613ZM126.642 53.6348C126.004 53.6348 125.594 53.4773 125.367 53.1623C125.093 52.8473 125.002 52.3747 125.002 51.7446V51.1146H122.315C121.768 51.1146 121.358 51.0095 121.085 50.6945C120.812 50.432 120.675 49.9594 120.675 49.2243V46.9141C120.675 46.2315 120.812 45.7589 121.085 45.4439C121.358 45.1814 121.768 45.0239 122.315 45.0239H125.002V42.1885H122.315C121.768 42.1885 121.358 42.0835 121.085 41.7685C120.812 41.506 120.675 41.0334 120.675 40.2983V37.9881C120.675 37.3055 120.812 36.8329 121.085 36.5179C121.358 36.2554 121.768 36.0978 122.315 36.0978H125.002V34.8902C125.002 34.2601 125.093 33.7876 125.367 33.4726C125.594 33.1575 126.004 33 126.642 33H131.106C131.698 33 132.108 33.1575 132.381 33.4726C132.609 33.7876 132.746 34.2601 132.746 34.8902V51.7446C132.746 52.3747 132.609 52.8473 132.381 53.1623C132.108 53.4773 131.698 53.6348 131.106 53.6348H126.642ZM111.565 42.2936C111.565 41.1384 111.247 40.2458 110.655 39.6683C110.017 39.1432 109.242 38.8807 108.286 38.8807C107.284 38.8807 106.51 39.1432 105.917 39.6683C105.28 40.2458 105.006 41.1384 105.006 42.2936V44.3413C105.006 45.5489 105.28 46.389 105.917 46.9141C106.51 47.4916 107.284 47.7542 108.286 47.7542C109.242 47.7542 110.017 47.4916 110.655 46.9141C111.247 46.389 111.565 45.5489 111.565 44.3413V42.2936Z" fill="black"/>
<path d="M146.006 47.1766C144.821 47.1766 143.774 47.0716 142.817 46.8616C141.815 46.7041 140.95 46.3365 140.221 45.8115C139.492 45.2864 138.9 44.6038 138.536 43.6587C138.08 42.8186 137.898 41.6635 137.898 40.2458C137.898 38.8807 138.08 37.7255 138.536 36.7804C138.9 35.8878 139.492 35.1527 140.221 34.5752C140.95 34.0501 141.815 33.6301 142.817 33.3675C143.774 33.1575 144.867 33 146.051 33H165.227C166.411 33 167.505 33.1575 168.507 33.3675C169.463 33.6301 170.329 34.0501 171.057 34.5752C171.786 35.1527 172.333 35.8878 172.788 36.7804C173.153 37.7255 173.38 38.8807 173.38 40.2458C173.38 41.6635 173.153 42.8186 172.788 43.6587C172.333 44.6038 171.786 45.2864 171.057 45.8115C170.329 46.3365 169.463 46.7041 168.507 46.8616C167.505 47.0716 166.411 47.1766 165.273 47.1766H146.006ZM164.635 41.506C165.182 41.506 165.591 41.401 165.774 41.0859C165.956 40.8234 166.047 40.5084 166.047 40.1408C166.047 39.7733 165.91 39.4057 165.728 39.0907C165.5 38.8282 165.136 38.6706 164.635 38.6706H146.643C146.097 38.6706 145.732 38.8282 145.55 39.0907C145.322 39.4057 145.231 39.7733 145.231 40.1408C145.231 40.5084 145.322 40.8234 145.505 41.0859C145.687 41.401 146.051 41.506 146.643 41.506H164.635ZM139.538 54.895C138.991 54.895 138.581 54.79 138.308 54.4749C138.035 54.2124 137.898 53.7399 137.898 53.0048V50.957C137.898 50.2745 138.035 49.8019 138.308 49.4869C138.581 49.2243 138.991 49.0668 139.538 49.0668H171.741C172.287 49.0668 172.697 49.2243 172.97 49.4869C173.244 49.8019 173.38 50.2745 173.38 50.957V53.0048C173.38 53.7399 173.244 54.2124 172.97 54.4749C172.697 54.79 172.287 54.895 171.741 54.895H139.538ZM137.898 66.0263C137.898 65.3962 137.989 64.9236 138.262 64.6086C138.49 64.2936 138.9 64.136 139.538 64.136H165.637V62.1408H139.31C138.353 62.1408 137.898 61.6683 137.898 60.6181V58.3079C137.898 57.3103 138.353 56.7852 139.31 56.7852H171.741C172.333 56.7852 172.743 56.9427 173.016 57.2578C173.244 57.5728 173.38 58.0453 173.38 58.6754V67.6539C173.38 68.284 173.244 68.7566 173.016 69.0716C172.743 69.3866 172.333 69.5442 171.741 69.5442H145.641V71.6969H171.968C172.879 71.6969 173.38 72.1694 173.38 73.2196V75.4773C173.38 76.4749 172.879 77 171.968 77H139.538C138.9 77 138.49 76.8425 138.262 76.5274C137.989 76.2124 137.898 75.7399 137.898 75.1098V66.0263Z" fill="black"/>
<path d="M190.845 75.9499C190.299 75.9499 189.889 75.7924 189.616 75.5298C189.342 75.2148 189.206 74.7422 189.206 74.0597V71.8019C189.206 71.0668 189.342 70.5943 189.616 70.3317C189.889 70.0692 190.299 69.9117 190.845 69.9117H191.893V43.1336C191.893 42.5036 191.984 42.031 192.257 41.716C192.485 41.401 192.895 41.2434 193.533 41.2434H197.951C198.543 41.2434 198.953 41.401 199.226 41.716C199.454 42.031 199.591 42.5036 199.591 43.1336V69.9117H203.189V43.1336C203.189 42.5036 203.28 42.031 203.553 41.716C203.781 41.401 204.191 41.2434 204.829 41.2434H209.247C209.839 41.2434 210.249 41.401 210.522 41.716C210.75 42.031 210.887 42.5036 210.887 43.1336V69.9117H211.752C212.299 69.9117 212.709 70.0692 212.982 70.3317C213.255 70.5943 213.392 71.0668 213.392 71.8019V74.0597C213.392 74.7422 213.255 75.2148 212.982 75.5298C212.709 75.7924 212.299 75.9499 211.752 75.9499H190.845ZM216.763 77C216.125 77 215.715 76.8425 215.487 76.5274C215.214 76.2124 215.123 75.7399 215.123 75.1098V34.8902C215.123 34.2601 215.214 33.7876 215.487 33.4726C215.715 33.1575 216.125 33 216.763 33H221.226C221.818 33 222.228 33.1575 222.502 33.4726C222.729 33.7876 222.866 34.2601 222.866 34.8902V51.4821H225.462C226.009 51.4821 226.419 51.6396 226.692 51.9021C226.965 52.2172 227.102 52.6897 227.102 53.3723V58.2554C227.102 58.9905 226.965 59.463 226.692 59.7255C226.419 60.0406 226.009 60.1456 225.462 60.1456H222.866V75.1098C222.866 75.7399 222.729 76.2124 222.502 76.5274C222.228 76.8425 221.818 77 221.226 77H216.763ZM191.073 39.0382C190.527 39.0382 190.117 38.9332 189.843 38.6181C189.57 38.3556 189.433 37.8831 189.433 37.148V34.8902C189.433 34.2076 189.57 33.7351 189.843 33.42C190.117 33.1575 190.527 33 191.073 33H211.524C212.071 33 212.481 33.1575 212.754 33.42C213.028 33.7351 213.164 34.2076 213.164 34.8902V37.148C213.164 37.8831 213.028 38.3556 212.754 38.6181C212.481 38.9332 212.071 39.0382 211.524 39.0382H191.073Z" fill="black"/>
<path d="M229.521 34.8902C229.521 34.2601 229.613 33.7876 229.886 33.4726C230.114 33.1575 230.524 33 231.161 33H248.561C249.153 33 249.563 33.1575 249.836 33.4726C250.064 33.7876 250.201 34.2601 250.201 34.8902V54.3699C250.201 55 250.064 55.4726 249.836 55.7876C249.563 56.1026 249.153 56.2601 248.561 56.2601H231.161C230.524 56.2601 230.114 56.1026 229.886 55.7876C229.613 55.4726 229.521 55 229.521 54.3699V34.8902ZM265.232 75.1098C265.232 75.7399 265.095 76.2124 264.867 76.5274C264.594 76.8425 264.184 77 263.592 77H231.161C230.524 77 230.114 76.8425 229.886 76.5274C229.613 76.2124 229.521 75.7399 229.521 75.1098V62.6659C229.521 62.0358 229.613 61.5632 229.886 61.2482C230.114 60.9332 230.524 60.7757 231.161 60.7757H235.625C236.217 60.7757 236.627 60.9332 236.9 61.2482C237.128 61.5632 237.265 62.0358 237.265 62.6659V70.9093H263.592C264.184 70.9093 264.594 71.0668 264.867 71.3819C265.095 71.6969 265.232 72.1695 265.232 72.7995V75.1098ZM258.217 61.5107C257.579 61.5107 257.169 61.3532 256.942 61.0382C256.668 60.7231 256.577 60.2506 256.577 59.6205V52.4272H253.434C252.888 52.4272 252.478 52.3222 252.205 52.0072C251.931 51.7446 251.795 51.2721 251.795 50.537V48.2267C251.795 47.5442 251.931 47.0716 252.205 46.7566C252.478 46.494 252.888 46.3365 253.434 46.3365H256.577V42.9761H253.434C252.888 42.9761 252.478 42.8711 252.205 42.5561C251.931 42.2936 251.795 41.821 251.795 41.0859V38.7757C251.795 38.0931 251.931 37.6205 252.205 37.3055C252.478 37.043 252.888 36.8854 253.434 36.8854H256.577V34.8902C256.577 34.2601 256.668 33.7876 256.942 33.4726C257.169 33.1575 257.579 33 258.217 33H262.681C263.273 33 263.683 33.1575 263.956 33.4726C264.184 33.7876 264.321 34.2601 264.321 34.8902V59.6205C264.321 60.2506 264.184 60.7231 263.956 61.0382C263.683 61.3532 263.273 61.5107 262.681 61.5107H258.217ZM237.037 50.1695H242.685V39.0907H237.037V50.1695Z" fill="black"/>
<path d="M269.154 57.5728C269.154 55.9451 269.291 54.5274 269.655 53.2673C269.928 52.0597 270.475 51.0621 271.295 50.222C272.069 49.4344 273.162 48.8043 274.529 48.3842C275.895 48.0167 277.581 47.8067 279.676 47.8067C281.726 47.8067 283.456 48.0167 284.823 48.3842C286.144 48.8043 287.237 49.4344 288.057 50.222C288.831 51.0621 289.378 52.0597 289.742 53.2673C290.015 54.5274 290.198 55.9451 290.198 57.5728V66.1838C290.198 67.864 290.015 69.2816 289.742 70.4893C289.378 71.6969 288.831 72.6945 288.057 73.5346C287.237 74.3222 286.144 74.9523 284.823 75.3723C283.456 75.7399 281.726 75.9499 279.676 75.9499C277.581 75.9499 275.895 75.7399 274.529 75.3723C273.162 74.9523 272.069 74.3222 271.295 73.5346C270.475 72.6945 269.928 71.6969 269.655 70.4893C269.291 69.2816 269.154 67.864 269.154 66.1838V57.5728ZM296.028 77C295.39 77 294.98 76.8425 294.752 76.5274C294.479 76.2124 294.388 75.7399 294.388 75.1098V34.8902C294.388 34.2601 294.479 33.7876 294.752 33.4726C294.98 33.1575 295.39 33 296.028 33H300.492C301.084 33 301.494 33.1575 301.767 33.4726C301.995 33.7876 302.131 34.2601 302.131 34.8902V51.4821H304.728C305.274 51.4821 305.684 51.6396 305.957 51.9021C306.231 52.2172 306.367 52.6897 306.367 53.3723V58.2554C306.367 58.9905 306.231 59.463 305.957 59.7255C305.684 60.0406 305.274 60.1456 304.728 60.1456H302.131V75.1098C302.131 75.7399 301.995 76.2124 301.767 76.5274C301.494 76.8425 301.084 77 300.492 77H296.028ZM269.928 43.1862C269.382 43.1862 268.972 43.0811 268.699 42.7661C268.425 42.5036 268.289 42.031 268.289 41.2959V39.1432C268.289 38.4606 268.425 37.9881 268.699 37.673C268.972 37.4105 269.382 37.253 269.928 37.253H275.804V34.8902C275.804 34.2601 275.895 33.7876 276.169 33.4726C276.396 33.1575 276.806 33 277.444 33H281.908C282.5 33 282.91 33.1575 283.183 33.4726C283.411 33.7876 283.547 34.2601 283.547 34.8902V37.253H289.423C289.97 37.253 290.38 37.4105 290.653 37.673C290.926 37.9881 291.063 38.4606 291.063 39.1432V41.2959C291.063 42.031 290.926 42.5036 290.653 42.7661C290.38 43.0811 289.97 43.1862 289.423 43.1862H269.928ZM276.897 66.2363C276.897 66.8663 276.897 67.4439 276.988 67.969C276.988 68.494 277.125 68.9666 277.353 69.2816C277.535 69.6492 277.808 69.9117 278.173 70.0692C278.537 70.2792 279.038 70.3842 279.676 70.3842C280.314 70.3842 280.815 70.2792 281.179 70.0692C281.543 69.9117 281.817 69.6492 282.044 69.2816C282.227 68.9666 282.318 68.494 282.409 67.969C282.409 67.4439 282.454 66.8663 282.454 66.2363V57.5203C282.454 56.8902 282.409 56.3126 282.409 55.7876C282.318 55.2625 282.227 54.8425 282.044 54.4749C281.817 54.1599 281.543 53.8449 281.179 53.6348C280.815 53.4773 280.314 53.3723 279.676 53.3723C279.038 53.3723 278.537 53.4773 278.173 53.6348C277.808 53.8449 277.535 54.1599 277.353 54.4749C277.125 54.8425 276.988 55.2625 276.988 55.7876C276.897 56.3126 276.897 56.8902 276.897 57.5203V66.2363Z" fill="black"/>
<path d="M308.787 53.5823C308.787 52.9523 308.878 52.4797 309.151 52.1647C309.379 51.8496 309.789 51.6921 310.426 51.6921H321.95V39.0907H310.426C309.789 39.0907 309.379 38.9332 309.151 38.6181C308.878 38.3031 308.787 37.8305 308.787 37.2005V34.8902C308.787 34.2601 308.878 33.7876 309.151 33.4726C309.379 33.1575 309.789 33 310.426 33H328.054C328.646 33 329.056 33.1575 329.329 33.4726C329.557 33.7876 329.694 34.2601 329.694 34.8902V55.8926C329.694 56.5227 329.557 56.9952 329.329 57.3103C329.056 57.6253 328.646 57.7828 328.054 57.7828H316.53V69.9117H328.919C329.511 69.9117 329.921 70.0692 330.195 70.3842C330.422 70.6993 330.559 71.1718 330.559 71.8019V74.0597C330.559 74.6897 330.422 75.1623 330.195 75.4773C329.921 75.7924 329.511 75.9499 328.919 75.9499H310.426C309.789 75.9499 309.379 75.7924 309.151 75.4773C308.878 75.1623 308.787 74.6897 308.787 74.0597V53.5823ZM335.66 77C335.023 77 334.613 76.8425 334.385 76.5274C334.112 76.2124 334.021 75.7399 334.021 75.1098V34.8902C334.021 34.2601 334.112 33.7876 334.385 33.4726C334.613 33.1575 335.023 33 335.66 33H340.124C340.716 33 341.126 33.1575 341.4 33.4726C341.627 33.7876 341.764 34.2601 341.764 34.8902V51.4821H344.36C344.907 51.4821 345.317 51.6396 345.59 51.9021C345.863 52.2172 346 52.6897 346 53.3723V58.2554C346 58.9905 345.863 59.463 345.59 59.7255C345.317 60.0406 344.907 60.1456 344.36 60.1456H341.764V75.1098C341.764 75.7399 341.627 76.2124 341.4 76.5274C341.126 76.8425 340.716 77 340.124 77H335.66Z" fill="black"/>
<path d="M335.869 1.17603H339.109V17.352H335.869V1.17603ZM326.221 1.46403C330.037 1.46403 332.221 4.05603 332.221 7.05603V8.11203C332.221 11.088 330.037 13.704 326.221 13.704C322.477 13.704 320.317 11.088 320.317 8.11203V7.05603C320.317 4.05603 322.477 1.46403 326.221 1.46403ZM329.077 8.11203V7.05603C329.077 5.52003 328.093 4.22402 326.221 4.22402C324.445 4.22402 323.461 5.52003 323.461 7.05603V8.11203C323.461 9.62403 324.445 10.944 326.221 10.944C328.093 10.944 329.077 9.62403 329.077 8.11203ZM326.485 20.472H339.589V23.328H325.501C324.445 23.328 324.061 23.112 323.533 22.536L322.885 21.864C322.309 21.24 322.165 20.904 322.165 19.752V15.432H325.453V19.344C325.453 19.56 325.501 19.752 325.621 19.896L326.005 20.352C326.125 20.448 326.221 20.472 326.485 20.472Z" fill="black"/>
<path d="M284.936 23.4H281.576V15.24H273.416V12.384H287.312C288.416 10.488 288.56 9.95998 288.56 8.92798V4.36798H274.592V1.58398H290.936C291.584 1.58398 291.848 1.89598 291.848 2.51998V8.61598C291.848 10.08 291.752 10.656 290.744 12.384H293V15.24H284.936V23.4Z" fill="black"/>
<path d="M239.715 6.04809H234.843V7.17609C234.843 7.82409 235.059 8.28009 235.587 8.71209C236.883 9.79209 238.779 11.0641 240.243 11.8561L238.659 14.2801C237.027 13.3681 234.819 11.8561 233.667 10.8241C233.403 10.6561 233.307 10.4881 233.187 10.2001C233.043 10.4881 232.731 10.7041 232.563 10.8721C231.387 11.9281 229.299 13.4161 227.715 14.2801L226.131 11.8801C227.619 11.0161 229.443 9.69609 230.667 8.71209C231.219 8.25609 231.411 7.82409 231.411 7.17609V6.04809H226.491V3.28809H231.459V0.840088H234.747V3.28809H239.715V6.04809ZM242.331 1.17609H245.499V14.2801H242.331V9.72009H238.995V6.93609H242.331V1.17609ZM234.003 15.2401H240.219C244.227 15.2401 245.979 16.8241 245.979 19.3201C245.979 21.8161 244.227 23.4481 240.219 23.4481H234.003C229.923 23.4481 228.243 21.8161 228.243 19.3201C228.243 16.8241 229.947 15.2401 234.003 15.2401ZM233.763 20.7121H240.435C242.187 20.7121 242.763 20.1601 242.763 19.3201C242.763 18.4561 242.187 17.9761 240.435 17.9761H233.763C232.011 17.9761 231.411 18.4561 231.411 19.3201C231.411 20.1601 232.011 20.7121 233.763 20.7121Z" fill="black"/>
<path d="M195.455 1.17603H198.695V23.016H195.455V1.17603ZM192.767 4.63203H190.919V18.336H193.127V21.24H179.735V18.336H181.703V4.63203H179.951V1.75203H192.767V4.63203ZM185.039 4.63203V18.336H187.655V4.63203H185.039Z" fill="black"/>
<path d="M116.081 26.064L115.505 24.456C116.777 24.216 117.473 23.472 117.569 22.296H116.129V18.552H120.113V21.504C120.113 23.832 118.529 25.68 116.081 26.064Z" fill="black"/>
<path d="M85.5967 10.1521H72.4447C71.6287 10.1521 71.2447 10.0081 70.5727 9.28811L70.0207 8.71211C69.4207 8.06411 69.3007 7.70411 69.3007 6.74411V2.42411C69.3007 1.75211 69.5647 1.46411 70.1647 1.46411H85.5967C86.2207 1.46411 86.5327 1.75211 86.5327 2.42411V9.24011C86.5327 9.86411 86.2207 10.1521 85.5967 10.1521ZM73.4287 7.39211H83.2447V4.29611H72.5407V6.36011C72.5407 6.62411 72.5887 6.76811 72.7567 6.93611L72.8767 7.10411C73.0207 7.27211 73.1407 7.39211 73.4287 7.39211ZM80.0767 18.2161H76.7407V14.5441H68.2207V11.7361H87.8047V14.5441H80.0767V18.2161ZM73.5007 20.2321H86.9647V23.0641H72.4687C71.4607 23.0641 71.1727 22.8721 70.6207 22.2961L70.0207 21.7441C69.4447 21.1441 69.3247 20.8081 69.3247 19.7041V16.1281H72.6127V19.2961C72.6127 19.5121 72.6367 19.5841 72.7807 19.7281L73.0687 20.0641C73.2127 20.1841 73.3087 20.2321 73.5007 20.2321Z" fill="black"/>
<path d="M22.568 4.24816V1.36816H39.872V4.24816H33.008V5.06416C33.008 5.88016 33.128 6.09616 33.848 6.60016C35.984 7.92016 38.288 9.09616 40.64 10.1282L39.296 12.7202C36.704 11.5202 34.232 10.1522 31.952 8.76016C31.568 8.52016 31.304 8.37616 31.232 8.13616C31.16 8.37616 30.92 8.54416 30.632 8.76016C28.256 10.2482 25.808 11.6402 23.24 12.8402L21.848 10.2722C24.392 9.09616 26.6 7.84816 28.568 6.60016C29.336 6.09616 29.48 5.88016 29.48 5.06416V4.24816H22.568ZM32.936 23.4002H29.576V16.8722H21.416V13.9922H41V16.8722H32.936V23.4002Z" fill="black"/>
<g style="mix-blend-mode:multiply">
<path fill-rule="evenodd" clip-rule="evenodd" d="M352.106 91.342C217.066 77.052 144.343 85.2566 13.0421 114.828L0.957764 61.172C136.682 30.6044 215.572 21.5868 357.894 36.6474L352.106 91.342Z" fill="#00FF59"/>
</g>
</svg>
