<svg width="270" height="74" viewBox="0 0 270 74" fill="none" xmlns="http://www.w3.org/2000/svg">
<style>
  path {
    opacity: 0;
    animation: pop 1s ease-in-out forwards;
    animation-delay: 0.5s;
  }

  .first {
    animation: pop 1s ease-in-out forwards;
  }

  @keyframes pop {
    0% {
      opacity: 0;
    }
    100% {
      opacity: 1;
    }
  }
</style>
<path d="M253.891 73.1148C254.586 69.2583 255.419 65.0891 256.358 60.8157C251.528 64.568 242.808 69.3278 235.268 70.2311C236.207 66.7915 238.187 60.3293 239.403 56.2644C238.5 56.4033 237.735 56.4728 237.179 56.5423L238.639 51.991C241.14 51.7825 247.046 51.0876 249.2 50.8097C249.722 49.142 250.486 46.849 251.007 45.0423C248.888 45.2161 243.398 45.6677 239.646 46.0499L241.001 41.9502L258.72 40.5605C257.782 44.0348 255.385 51.2614 254.516 54.1798C253.265 54.3188 249.791 54.8399 246.247 55.3263C245.448 57.8625 244.406 61.3021 243.989 62.7266C247.88 61.7885 252.293 59.7734 257.261 56.716C258.616 50.9139 260.11 45.1118 261.604 39.9351L268.031 39.3445C266.641 44.0695 265.425 49.0725 264.383 54.0061C265.947 53.8323 267.51 53.6239 269.108 53.4154L268.031 57.8625C266.537 58.071 264.974 58.3142 263.445 58.5227C262.472 63.5257 261.638 68.4244 260.909 72.8716L253.891 73.1148Z" fill="black">

</path>
<path d="M221.565 73.1148C223.406 62.7266 226.325 50.1496 229.278 39.9352L235.705 39.3445C234.177 44.5212 232.891 50.0107 231.779 55.3958C233.308 55.2221 234.871 55.0137 236.435 54.8052L235.358 59.2523L230.876 59.8777C229.973 64.429 229.243 68.8414 228.583 72.8716L221.565 73.1148ZM203.672 50.6013L205.097 45.8762C206.521 45.7373 209.162 45.5288 212.149 45.2856C212.74 43.4095 213.365 41.1859 213.817 39.692L220.418 39.2403C219.932 40.6995 219.133 42.9231 218.473 44.7297C221.912 44.4518 225.074 44.1738 226.637 44.0696L225.143 48.8641C222.016 49.1421 208.606 50.1844 203.672 50.6013ZM203.846 59.8429C205.097 55.4653 208.884 51.3656 214.616 51.0182C220.731 50.7055 224.101 53.9366 222.92 59.2871C221.669 64.8459 216.666 68.5287 210.516 68.7372C204.888 68.9109 202.491 64.568 203.846 59.8429ZM209.752 59.7387C208.884 62.3444 209.891 63.8384 211.559 63.8036C213.817 63.7342 215.867 61.8233 216.666 59.1481C217.361 56.7161 215.867 55.778 214.06 55.8822C212.219 55.9865 210.516 57.4804 209.752 59.7387Z" fill="black"/>
<path d="M190.264 64.1511C190.889 61.7885 191.793 58.4532 192.766 54.9441L189.5 55.2221L190.82 50.7055L193.982 50.497C194.19 49.7674 194.364 49.0726 194.572 48.4124L191.654 48.6556L192.766 44.139L195.823 43.9306C196.24 42.4019 196.657 41.0817 196.969 40.0046L203.918 39.4487C202.007 45.7025 197.977 57.6888 196.379 64.0121L190.264 64.1511ZM170.843 60.9894C172.51 54.284 174.664 45.7025 176.228 40.5258L182.621 40.1088C182.447 40.6647 182.238 41.2206 182.065 41.8113C185.018 41.4986 188.909 41.1859 193.287 40.9079C191.793 45.5983 189.326 53.1722 187.832 57.8626C185.296 58.4532 181.439 59.2175 178.139 59.5302L177.93 56.2991C177.583 57.6541 177.27 58.9049 177.027 59.9819L170.843 60.9894ZM173.692 62.6224L180.327 61.6148C181.231 69.571 185.678 70.509 189.708 70.509C193.078 70.509 197.664 70.1269 200.548 69.0846L197.282 72.8021C195.232 73.6012 192.14 73.8791 188.631 73.8791C181.96 73.8791 174.977 71.9335 173.692 62.6224ZM178.173 55.3263C179.737 55.1873 181.405 54.9441 183.003 54.7009C184.08 51.3309 185.435 46.71 185.817 45.2161C184.601 45.3203 182.69 45.494 180.883 45.633C179.911 48.8641 178.972 52.3037 178.173 55.3263Z" fill="black"/>
<path d="M156.93 73.1148C157.452 70.2311 158.042 67.1389 158.702 64.0121C152.796 65.9577 145.465 67.7296 136.745 69.571L138.169 64.0121C139.42 63.8036 140.671 63.6299 141.887 63.4214C142.582 58.8701 144.006 50.0801 144.527 47.4049L150.434 47.0227C149.878 49.8021 148.523 57.9668 147.793 62.4834L150.121 62.0665C151.233 57.0287 152.553 50.4623 153.282 46.8837L159.467 46.988L156.097 60.9199C157.243 60.6767 158.39 60.4335 159.536 60.1208C161.065 53.207 162.837 46.1541 164.643 39.9351L171.071 39.3445C169.681 44.0695 168.465 49.0725 167.423 54.0061C168.986 53.8323 170.55 53.6239 172.148 53.4154L171.071 57.8625C169.577 58.071 168.013 58.3142 166.485 58.5227C165.512 63.5257 164.678 68.4244 163.949 72.8716L156.93 73.1148ZM140.497 46.8837L141.713 42.3324C146.855 41.9502 157.73 41.3596 163.184 41.1164L161.933 45.3203C156.514 45.6677 145.604 46.4668 140.497 46.8837Z" fill="black"/>
<path d="M110.993 52.1647C103.002 52.4079 99.7713 49.8369 101.231 45.6677C102.342 42.5061 107.866 39.9699 115.579 39.7267C123.987 39.4835 127.948 41.707 127.045 45.2856C126.037 49.3505 119.505 51.9215 110.993 52.1647ZM96.0538 58.2795L97.7562 54.0061C100.675 53.8324 124.126 52.7206 127.67 52.5469L126.246 56.5423C123.362 56.6813 100.015 58.0363 96.0538 58.2795ZM97.0961 69.0498L98.2774 65.0196C102.655 64.7417 113.53 64.0816 116.969 63.8036L117.282 62.4139C113.808 62.6224 103.906 63.2477 98.7985 63.5952L99.945 59.4955C105.018 59.1828 118.984 58.3837 124.717 58.071C124.022 60.3988 122.841 65.2628 122.32 67.1737L105.851 68.3897C105.851 69.6752 106.998 70.1964 110.472 70.1616C114.641 70.1269 121.382 69.1541 127.983 66.1314L126.246 69.8142C121.173 72.5589 115.301 73.7401 110.542 73.8791C101.092 74.1571 98.729 72.3852 99.0765 68.8761C98.3121 68.9456 97.652 69.0151 97.0961 69.0498ZM106.894 46.0152C106.546 47.1964 108.179 47.8913 112.314 47.7176C116.031 47.5786 120.304 46.988 120.721 45.4245C120.999 44.3822 118.949 43.9306 114.572 44.139C110.959 44.278 107.276 44.7992 106.894 46.0152Z" fill="black"/>
<path d="M86.6064 55.8127C86.8496 54.8747 87.0928 53.8671 87.336 52.8596L83.8964 53.1375L85.2167 48.6209L88.4478 48.3777C88.5868 47.8218 88.7605 47.2312 88.8994 46.6405L85.6683 46.9185L86.7801 42.4019L90.0807 42.1587C90.2544 41.4291 90.4629 40.6995 90.6366 40.0046L97.5852 39.4487C95.9523 44.6254 94.0762 50.5665 92.7559 55.3263L86.6064 55.8127ZM65.5868 48.2735C66.7681 43.5832 71.7016 40.0394 77.3647 39.9351C82.8542 39.8656 86.3979 42.5756 85.3904 47.2312C84.2786 52.3384 79.3451 55.4305 73.2651 55.8475C67.324 56.2296 64.3708 53.1028 65.5868 48.2735ZM65.6563 68.355L66.8376 64.1511C71.0068 63.9079 81.0475 63.1435 84.6608 62.7961L85.2167 60.6768C81.8813 60.92 73.2651 61.5106 67.3587 62.0317L68.5053 57.932C73.7862 57.5499 87.1623 56.5423 92.7212 56.1602C92.0263 58.6964 90.7061 63.9079 90.1849 65.9924L74.4116 67.4864C74.3768 69.4668 75.4539 70.1964 78.685 70.1616C82.7847 70.1269 89.3858 69.1541 95.8481 66.1314L94.1109 69.8142C89.1426 72.5589 83.41 73.7401 78.7545 73.8791C69.8255 74.1571 67.3935 72.142 67.6367 68.1465C66.8723 68.2507 66.1775 68.2855 65.6563 68.355ZM71.3542 47.9955C70.7636 50.1843 72.188 51.2614 74.2726 51.1224C76.6351 50.9139 78.4418 49.6285 78.9282 47.6134C79.4493 45.3898 78.3376 44.4865 75.975 44.556C73.543 44.6255 71.8406 46.2931 71.3542 47.9955Z" fill="black"/>
<path d="M53.8117 57.8278C54.3328 55.8127 55.1319 52.8943 55.931 49.8717L50.1984 50.3928L51.3796 46.2584L57.0428 45.772C57.6681 43.5137 58.2588 41.4638 58.6757 40.0046L65.6243 39.4487C64.1651 44.0348 61.1424 52.8596 59.9264 57.5499L53.8117 57.8278ZM30.6033 58.8006C35.9885 54.0061 41.4431 45.3551 44.3615 40.4563L50.4416 40.1088C49.2951 42.4366 47.5926 45.494 45.7513 48.5167L49.0171 47.8218C49.3645 51.1224 50.5805 54.423 52.2482 57.2372L45.4038 57.8626C44.5353 56.1949 43.9446 53.9713 43.6667 51.7478C41.86 54.4577 40.0187 56.8203 38.4552 58.2795L30.6033 58.8006ZM34.1123 64.1511L35.641 59.7734C40.7135 59.4607 53.499 58.6964 59.7875 58.4185C58.0156 64.9502 56.6258 69.9532 55.653 73.4275L49.1908 73.6359C50.2679 70.1964 51.4839 65.8535 52.283 63.1088C48.4265 63.2825 40.0187 63.8384 34.1123 64.1511Z" fill="black"/>
<path d="M2.55204 56.7855C5.47045 56.6118 28.922 55.5 32.4658 55.3263L31.0414 59.6692L27.4976 59.8777C26.7332 62.0665 25.7257 65.0891 25.3782 66.1662L18.3254 66.5831C18.8465 65.2628 19.9236 62.2749 20.6532 60.2598C20.0973 60.2946 19.5414 60.3293 18.9855 60.3293C18.2212 62.5529 17.2136 65.5755 16.8662 66.6526L11.1683 66.9653C13.0444 69.7447 16.1713 70.1616 19.0897 70.1616C22.4598 70.1616 27.0459 69.7794 29.9296 68.7372L26.6637 72.8021C24.6139 73.6012 21.5218 73.8791 18.0127 73.8791C11.342 73.8791 4.35868 72.1072 3.07318 63.6647L9.70911 62.6571C9.84808 63.7341 10.0913 64.6722 10.404 65.4713C10.9251 64.0121 11.62 62.136 12.1411 60.7462C6.99915 61.0242 2.41306 61.3021 0.849625 61.4064L2.55204 56.7855ZM6.02634 47.0575C7.38132 43.2705 12.6623 39.9699 20.3752 39.7267C28.7831 39.4835 32.9522 42.2629 31.8405 46.6753C30.6244 51.5046 24.3012 54.7009 15.7891 54.9441C7.79824 55.1874 4.25445 52.0257 6.02634 47.0575ZM11.6547 47.5786C11.0988 49.5242 12.975 50.6708 17.1094 50.497C20.8269 50.3581 24.8918 49.281 25.5172 46.8143C26.0036 44.8687 23.7453 43.9306 19.3677 44.1391C15.7544 44.278 12.3496 45.3551 11.6547 47.5786Z" fill="black"/>
<path d="M227.721 26.1511C229.354 20.071 232.724 7.59825 234.427 2.00462L241.375 1.44873C239.465 7.70248 235.434 19.6888 233.836 26.0121L227.721 26.1511ZM209.377 12.5318C210.802 7.04237 215.77 2.73422 221.676 2.62999C227.096 2.56051 230.779 5.93059 229.528 11.4895C228.277 17.5 223.274 21.2523 216.882 21.6692C211.079 22.0514 207.918 18.2991 209.377 12.5318ZM211.149 24.6224L217.785 23.6148C218.688 31.571 223.135 32.509 227.165 32.509C230.536 32.509 235.122 32.1269 238.005 31.0846L234.739 34.8021C232.69 35.6012 229.598 35.8791 226.088 35.8791C219.418 35.8791 212.434 33.9335 211.149 24.6224ZM215.144 12.2538C214.276 15.4849 215.909 17.0484 217.889 16.9441C220.53 16.7704 222.371 14.7553 223.066 11.8717C223.83 8.64055 222.579 7.18134 220.286 7.25082C217.576 7.32031 215.839 9.82181 215.144 12.2538Z" fill="black"/>
<path d="M177.608 19.6541C179.345 19.4804 188.483 18.7508 196.3 18.0907L200.434 7.25083C194.493 7.70249 185.877 8.4321 182.82 8.71004L184.418 3.98498C189.977 3.53332 202.415 2.66475 209.363 2.17834L202.901 17.5695C205.09 17.3958 206.758 17.2568 207.522 17.1874L206.445 21.565C205.264 21.6692 200.678 22.1209 195.397 22.642C193.833 27.1586 191.957 32.7175 191.228 34.8368L183.827 35.5317C184.765 33.0302 186.746 27.5408 188.309 23.3369C182.924 23.858 178.025 24.3444 176.427 24.5181L177.608 19.6541Z" fill="black"/>
<path d="M165.764 21.6344L168.126 13.0182L163.401 13.4351L164.582 9.30065L169.238 8.88373C169.968 6.20851 170.662 3.70701 171.184 2.0046L178.132 1.44871C176.43 6.48646 173.268 16.2145 171.739 21.3218L165.764 21.6344ZM143.563 22.5378C147.732 18.6465 153.326 13.3308 156.974 8.64053C153.673 8.95322 149.747 9.23116 147.35 9.47436L148.844 5.02725C150.199 4.92302 151.901 4.81879 153.708 4.71456C154.09 3.46381 154.437 2.14357 154.681 1.34448L161.282 0.892822C160.969 1.83088 160.552 3.04689 160.1 4.29764C162.741 4.12393 165.242 3.95021 167.119 3.84598C165.59 6.20851 163.054 9.37013 160.378 12.4275L162.915 11.9064C163.158 14.7206 163.957 17.5348 165.104 19.932L158.259 20.5574C157.877 19.2372 157.599 17.5 157.46 15.7281C155.097 18.3338 152.839 20.6269 151.311 22.0166L143.563 22.5378ZM146.62 28.4093C148.67 24.2749 154.854 21.5302 161.803 21.6692C168.508 21.8082 172.156 25.074 170.801 28.6178C168.821 33.864 162.498 36.0876 154.924 35.8791C147.593 35.7054 144.709 32.3701 146.62 28.4093ZM152.631 28.7568C151.797 30.2507 153.326 31.2583 156.522 31.2235C160.066 31.3278 163.297 30.3897 164.165 28.4788C164.86 26.9501 163.471 26.1858 159.649 26.1858C156.348 26.2205 153.43 27.2628 152.631 28.7568Z" fill="black"/>
<path d="M131.857 35.1148C132.378 32.0921 133.004 28.8957 133.698 25.6299C127.723 27.7145 120.114 29.6253 110.977 31.571L112.401 26.0121C113.652 25.8036 114.902 25.6299 116.118 25.4214C116.813 20.8701 118.238 12.0801 118.759 9.40488L124.665 9.0227C124.109 11.7674 122.754 19.932 122.06 24.4486L124.387 24.0317C125.464 18.994 126.785 12.4275 127.514 8.88373L133.698 8.98796C132.517 13.991 131.232 19.2372 130.328 22.8504C131.718 22.5378 133.108 22.2251 134.532 21.8776C136.026 15.0333 137.798 8.0499 139.57 1.93512L145.998 1.34448C142.766 12.358 140.508 24.7961 138.875 34.8716L131.857 35.1148ZM114.729 8.88373L115.945 4.33239C121.156 3.95021 132.205 3.35958 137.763 3.11638L136.513 7.32029C130.989 7.66772 119.905 8.46681 114.729 8.88373Z" fill="black"/>
<path class="first" d="M91.8249 30.077C92.485 27.6103 94.9865 26.1858 97.0016 26.1858C99.1904 26.1858 100.719 27.9924 99.6769 30.4592C98.843 32.4743 97.0364 33.6556 94.9518 33.6556C93.0062 33.6556 91.1648 32.5785 91.8249 30.077Z" fill="black"/>
<path class="first" d="M61.7238 18.7855C64.6423 18.6118 88.0938 17.5 91.6376 17.3263L90.2132 21.6692L80.4156 22.2251C79.6513 24.4139 78.6437 27.4366 78.2963 28.5136L71.0697 28.9305C71.5909 27.645 72.6332 24.6571 73.3975 22.6073L60.0214 23.4064L61.7238 18.7855ZM62.245 25.6647L68.8809 24.6571C69.7842 31.3625 74.2314 32.1616 78.2616 32.1616C81.6316 32.1616 86.2177 31.7794 89.1014 30.7372L85.8355 34.8021C83.7857 35.6012 80.6936 35.8791 77.1845 35.8791C70.5138 35.8791 63.5305 34.1072 62.245 25.6647ZM63.322 17.5C64.3643 14.4079 65.7193 10.6557 66.7616 7.80672C65.9625 7.8762 65.3371 7.91095 64.8507 7.94569L66.4489 3.15115C72.251 2.80372 85.2449 2.00463 92.4367 1.58771C91.6724 4.29767 90.3521 8.25838 89.4488 11.0378C90.1437 10.9683 90.7691 10.9336 91.3249 10.8989L90.1784 14.9638C85.0712 15.5197 70.8613 16.8399 63.322 17.5ZM71.0697 12.2538C72.8764 12.1496 78.1921 11.8022 83.2645 11.4547C83.751 9.68284 84.2721 7.70249 84.55 6.62545C82.257 6.76443 77.254 7.11186 72.7721 7.3898C72.0773 9.30067 71.3824 11.3158 71.0697 12.2538Z" fill="black"/>
<path class="first" d="M29.7466 21.3913C32.6651 21.1133 56.1166 19.2025 59.6604 18.9245L58.5834 23.3022C57.3674 23.4064 52.4339 23.8928 46.9097 24.4139C45.4853 28.5484 43.9913 32.9955 43.3659 34.8369L35.9657 35.5317L39.7874 25.1435C34.6454 25.6299 30.1288 26.0816 28.5654 26.2553L29.7466 21.3913ZM30.1636 19.7931C36.0699 16.2841 42.0109 11.7675 46.1454 8.04994C41.9415 8.32789 36.7995 8.71006 34.5412 8.81429L35.8267 3.88077C38.8493 3.70706 50.3493 3.08168 58.097 2.73425C56.5683 4.88832 54.4837 7.14662 52.1212 9.33544L54.5185 9.09224C55.2481 12.1149 57.2979 15.1375 59.8689 17.6738L51.9822 18.1602C50.4535 16.6315 49.2375 14.5469 48.5774 12.4971C45.659 14.9638 42.6711 17.2221 40.239 18.994L30.1636 19.7931Z" fill="black" />

</svg>
